<svg xmlns="http://www.w3.org/2000/svg" viewBox="0 0 129.6 130.67"><defs><style>.cls-1{fill:none;}.cls-1,.cls-2,.cls-3,.cls-4,.cls-5{stroke:#1d1d1b;stroke-miterlimit:10;}.cls-2{fill:#245c75;}.cls-3{fill:#347091;}.cls-4{fill:#287dad;}.cls-5{fill:#357192;}</style></defs><g id="Calque_2" data-name="Calque 2"><g id="Calque_2-2" data-name="Calque 2"><path class="cls-1" d="M.79,27.19c12.64-16,26.14-21.43,32.58-23.45C42.53.86,50.54.81,59.7.76,75.11.67,80,3.22,94.93,4.07a153.53,153.53,0,0,0,32.25-1.63,163.45,163.45,0,0,1,1.42,37.12c-1.35,17.19-5,26.88-6.37,49.51-.53,8.62-.54,15.74-.45,20.48a96.77,96.77,0,0,0-25.87,0c-5.06.7-8.68,1.62-18.24,4.24-19.35,5.3-26.31,7.51-33.55,9.45A258.08,258.08,0,0,1,8.5,130.12a164.41,164.41,0,0,1-4.37-22.47C2,90.2,3.64,80.47,3.35,61.73A296,296,0,0,0,.79,27.19Z"/><path class="cls-2" d="M.79,27.19a30.65,30.65,0,0,1,12.13,8.29c7.7,8.85,5.21,17.58,11.15,25.09,3.21,4.06,9.62,8.69,24,9.3a105.91,105.91,0,0,0,14.65,47.86c-7.69,2.62-16.24,5.14-25.6,7.33A272.37,272.37,0,0,1,8.5,130.12a190.11,190.11,0,0,1-4.45-25.73c-1.76-17.14-.31-26-1-46.58C2.84,50.66,2.29,40.11.79,27.19Z"/><path class="cls-3" d="M69.85,2.44c4.88,18.06,1.91,28.22-2.07,34.26C64.28,42,59.41,45,54.21,54.23A62.51,62.51,0,0,0,48,69.87c-14.34-.61-20.75-5.24-24-9.3-5.94-7.51-3.45-16.24-11.15-25.09A30.65,30.65,0,0,0,.79,27.19,66.1,66.1,0,0,1,69.85,2.44Z"/><path class="cls-4" d="M127.18,2.44A248.75,248.75,0,0,1,94.93,4.07,250.45,250.45,0,0,1,69.85,2.44c4.92,18.3,1.84,28.39-2.07,34.26-2.93,4.4-6.26,6.36-10.9,13.26A64.36,64.36,0,0,0,48,69.87a105.91,105.91,0,0,0,14.65,47.86l27.54-7.38C83.74,84.61,88.36,70,94,61.4c7.57-11.66,18.18-14.35,26.29-29.37C126.2,21,127.22,10,127.18,2.44Z"/><path class="cls-5" d="M121.78,109.55a216.2,216.2,0,0,1,.59-27.2C124.18,60.76,128.15,51.9,129,33a154.21,154.21,0,0,0-1.79-30.59c-.23,9.09-2,22.57-10.35,35.05-8.11,12.07-16.26,14-22.88,23.91-5.55,8.31-10.36,22.73-3.73,48.95a103.68,103.68,0,0,1,18.07-1.64A105.19,105.19,0,0,1,121.78,109.55Z"/></g></g></svg>