<svg xmlns="http://www.w3.org/2000/svg" xmlns:xlink="http://www.w3.org/1999/xlink" viewBox="0 0 455 687"><defs><style>.cls-1{opacity:0.5;}.cls-2{fill:#5b5243;}.cls-2,.cls-4,.cls-5,.cls-6,.cls-7,.cls-8,.cls-9{stroke:#1d1d1b;}.cls-10,.cls-11,.cls-12,.cls-13,.cls-14,.cls-15,.cls-16,.cls-17,.cls-18,.cls-19,.cls-2,.cls-20,.cls-21,.cls-22,.cls-23,.cls-24,.cls-25,.cls-26,.cls-27,.cls-28,.cls-29,.cls-3,.cls-30,.cls-31,.cls-32,.cls-33,.cls-4,.cls-5,.cls-6,.cls-7,.cls-8,.cls-9{stroke-linecap:round;stroke-linejoin:round;stroke-width:3px;}.cls-3{fill:#1e1e1e;}.cls-10,.cls-11,.cls-12,.cls-13,.cls-14,.cls-15,.cls-16,.cls-17,.cls-18,.cls-19,.cls-20,.cls-21,.cls-22,.cls-23,.cls-24,.cls-25,.cls-26,.cls-27,.cls-28,.cls-29,.cls-3,.cls-30,.cls-31,.cls-32,.cls-33{stroke:#1e1e1c;}.cls-4{fill:#493728;}.cls-5{fill:#716650;}.cls-6{fill:#4a4131;}.cls-7{fill:#60513c;}.cls-8{fill:#95825c;}.cls-25,.cls-9{fill:#2b2c2c;}.cls-10{fill:#414142;}.cls-11{fill:#313133;}.cls-12{fill:#b2b4b7;}.cls-13{fill:#272729;}.cls-14{fill:#353537;}.cls-15{fill:#c6c6c8;}.cls-16{fill:#714118;}.cls-17{fill:#f3f0e1;}.cls-18{fill:#43959b;}.cls-19{fill:#160a06;}.cls-20{fill:#3b3128;}.cls-21{fill:#574b3f;}.cls-22{fill:#1b1c1e;}.cls-23{fill:#423d2a;}.cls-24{fill:#76777c;}.cls-26{fill:#6b604c;}.cls-27{fill:#6ac6db;}.cls-28{fill:#808186;}.cls-29{fill:#e3e3e2;}.cls-30{fill:#120b09;}.cls-31{fill:#6fc7da;}.cls-32{fill:#fffffb;}.cls-33{fill:#393532;}</style></defs><title>mia_course</title><g id="Calque_1" data-name="Calque 1"><image class="cls-1" width="455" height="687" xlink:href="mia_course.png"/></g><g id="queu"><path class="cls-2" d="M130.81965,34.76789c.39609-1.323,4.283-13.52716,17.09872-18.17877,12.12821-4.40207,22.41509,1.5306,23.75235,2.3328a62.22014,62.22014,0,0,0,11.234,6.65448,62.23537,62.23537,0,0,0,13.617,4.42553,95.12764,95.12764,0,0,0,14.29788-5.78724,95.1382,95.1382,0,0,0,14.29785-8.85106A44.01131,44.01131,0,0,1,214.301,40.682a42.67761,42.67761,0,0,1-14.375,10.42632C178.91053,68.217,153.60734,69.32947,140.692,57.57639,133.09873,50.66645,131.26812,40.65689,130.81965,34.76789Z"/><polygon class="cls-3" points="118.224 27.449 121.118 24.555 131.875 31.983 130.82 34.768 118.224 27.449"/></g><g id="sac"><path class="cls-4" d="M143.926,88.54125a89.34637,89.34637,0,0,0,33.02129,15.16281,89.50442,89.50442,0,0,0,40.34042-.14154,45.75284,45.75284,0,0,0-49.02128-38.20944c-7.83715-3.56514-16.90934-1.53316-21.95745,4.64885A18.23079,18.23079,0,0,0,143.926,88.54125Z"/><path class="cls-5" d="M217.28774,103.56252c2.31052,12.06784,4.38526,24.72024,6.12766,37.92877a663.31028,663.31028,0,0,1,5.617,76.70427,43.82917,43.82917,0,0,1-31.149,28.42587,70.77207,70.77207,0,0,1-26.5532-2.894L143.926,88.54125a89.34637,89.34637,0,0,0,33.02129,15.16281A89.50442,89.50442,0,0,0,217.28774,103.56252Z"/><path class="cls-6" d="M229.03243,218.19556c.15286,2.308.98859,19.12256-11.855,30.88666-11.25253,10.30673-28.44257,12.5578-43.29391,5.53885q-1.27659-5.4468-2.5532-10.89362a70.67019,70.67019,0,0,0,26.5532,2.894,43.82917,43.82917,0,0,0,31.149-28.42587Z"/><path class="cls-7" d="M223.95226,151.53458a25.99448,25.99448,0,0,1,19.378,11.91415,26.262,26.262,0,0,1,4.08512,14.74659v30.5534a31.28968,31.28968,0,0,1-5.10639,11.89151c-5.11484,7.22772-10.40109,7.075-13.27658,8.15217-.31314-18.91122-2.82709-35.55079-4.66662-56.14492C223.72433,165.46575,224.754,158.4688,223.95226,151.53458Z"/><path class="cls-4" d="M247.4154,178.19532a13.63436,13.63436,0,0,1-12.213,7.06765c-6.02234-.20837-7.19638-2.56152-7.70245-3.21228-.97372-9.50407-2.574-21.012-3.54774-30.51611,1.756.06247,9.23065.505,16.43488,8.2188A26.69044,26.69044,0,0,1,247.4154,178.19532Z"/><path class="cls-8" d="M245.261,176.53374l2.22828-.27389a4.03022,4.03022,0,0,1,4.52189,4.00012v6.2568a5.1957,5.1957,0,0,1-5.19569,5.1957h-.65117a3.34464,3.34464,0,0,1-3.34463-3.34464V179.2935A2.78054,2.78054,0,0,1,245.261,176.53374Z"/><path class="cls-8" d="M214.21449,93.49129h3.68479a4.81347,4.81347,0,0,1,4.78264,4.2695l1.73385,15.24405a6.29787,6.29787,0,0,1-5.45742,6.95857l-2.15343.27581a3.18621,3.18621,0,0,1-3.55552-2.68621l-2.93869-19.52647A3.94774,3.94774,0,0,1,214.21449,93.49129Z"/><path class="cls-7" d="M186.47924,218.19556a14.00957,14.00957,0,0,0,5.27658,4.48721,14.688,14.688,0,0,0,10.72342.61911,15.02359,15.02359,0,0,0,14.8085-9.33984V188.8338a15.431,15.431,0,0,0-30.8085,0Z"/><path class="cls-4" d="M217.37282,195.60474H186.47924c-.12485-.51312-2.28236-10.07632,4.41925-16.62314a17.15129,17.15129,0,0,1,11.22958-4.668,16.92922,16.92922,0,0,1,15.24475,21.29115Z"/><rect class="cls-8" x="197.88348" y="188.83381" width="9.70213" height="12.55267" rx="2.88193"/><rect class="cls-9" x="153.96859" y="95.08212" width="6.12766" height="14.46835" transform="translate(-14.04994 178.85801) rotate(-57.19031)"/><rect class="cls-9" x="185.38792" y="224.40391" width="6.12766" height="14.46835" transform="translate(-31.46295 29.62871) rotate(-8.29956)"/></g><g id="bustre"><path class="cls-3" d="M68.18136,88.54125a34.97462,34.97462,0,0,0-8.85108-8.83719c-3.8076-2.62932-7.43489-14.22565-9.9973-14.97873-2.42335-25.25906,10.1514-32.23072,20.3695-32.62366C78.22352,31.774,88.229,43.0033,92.81965,58.76789L96.77709,61.46A49.5413,49.5413,0,0,1,87.926,75.27852,50.15327,50.15327,0,0,1,68.18136,88.54125Z"/><path class="cls-10" d="M96.77709,61.46c5.2823-7.28478,14.918-9.6752,22.4681-5.9261a17.98633,17.98633,0,0,1,9.5319,18.383,46.84683,46.84683,0,0,1-21.65941,14.695,44.10089,44.10089,0,0,1-10.34059,1.908,49.90316,49.90316,0,0,0-23.82977,18.80127c-12.20654,18.404-7.00626,38.373-6.12767,41.5319a79.80613,79.80613,0,0,1-14.6383-35.67872,36.98389,36.98389,0,0,1,7.48937-18.78935,35.87071,35.87071,0,0,1,8.51064-7.84366A49.502,49.502,0,0,0,96.77709,61.46Z"/><path class="cls-11" d="M128.77709,73.91683c10.076.75313,18.5188,6.642,21.44682,14.97871a22.02223,22.02223,0,0,1-.34043,14.667,28.68311,28.68311,0,0,1-4.0851,1.67345,29.2527,29.2527,0,0,1-10.21277,1.3617c-9.87927-3.764-17.55936-3.11734-21.83357-2.30078-19.315,3.69-35.00852,23.445-39.1026,49.61994a5.17771,5.17771,0,0,1-4.55138.78407,4.9475,4.9475,0,0,1-3.27841-3.84792c-.87859-3.15893-6.07887-23.12786,6.12767-41.5319A49.90316,49.90316,0,0,1,96.77709,90.51981a45.49366,45.49366,0,0,0,32-16.603Z"/><path class="cls-12" d="M74.64944,153.91683c-5.21859,10.232-4.47231,21.0964,1.4468,26.8936a16.30513,16.30513,0,0,0,8.68837,4.27792,156.41036,156.41036,0,0,0,78.12015-57.63962c.35251-1.82754,4.6929-7.48507-2.99411-16.69352a25.261,25.261,0,0,0-10.02717-7.19269,29.20794,29.20794,0,0,1-14.29787,3.03515,38.58538,38.58538,0,0,0-20.736-2.48991C95.439,107.37532,79.31451,127.21782,74.64944,153.91683Z"/><path class="cls-12" d="M162.90476,127.44873a25.1113,25.1113,0,0,1,12.25531,12.766c2.75282,6.60849,9.67609,21.54163,9.1915,23.74468-6.21309,9.05323-22.81912,10.75883-34.7234,21.19148a164.41746,164.41746,0,0,1-59.07706,33.04471c-1.07753-.638-9.084-5.566-10.62508-15.683a22.7402,22.7402,0,0,1,4.85858-17.42423,156.95581,156.95581,0,0,0,47.73717-25.72471A156.57922,156.57922,0,0,0,162.90476,127.44873Z"/><path class="cls-12" d="M90.55111,218.19556a16.22838,16.22838,0,0,0,11.33237,18.01913,160.98714,160.98714,0,0,0,51.06384-6.12765,158.56141,158.56141,0,0,0,21.44681-7.91489,50.1821,50.1821,0,0,0,10.7234-15.8298c8.19008-19.33606,1.16942-37.733-.766-42.383a332.17529,332.17529,0,0,1-59.65572,39.14323A330.55139,330.55139,0,0,1,90.55111,218.19556Z"/><path class="cls-12" d="M101.88348,236.21469a6.4231,6.4231,0,0,0,0,12.51066,95.81642,95.81642,0,0,0,29.617,5.617,97.58554,97.58554,0,0,0,46.72341-10.6149,12.49114,12.49114,0,0,0,4.59574-13.3851c-1.831-6.11859-7.96871-8.036-8.42552-8.1702a159.63677,159.63677,0,0,1-72.51065,14.04254Z"/><path class="cls-13" d="M178.22391,243.72745a17.77023,17.77023,0,0,0-1.27659,6.01917,19.08664,19.08664,0,0,0,4.0851,12.09967,193.10486,193.10486,0,0,1-57.555,9.796q-1.8156-9.18058-3.63123-18.36121a96.48348,96.48348,0,0,0,58.37773-9.55368Z"/><path class="cls-14" d="M137.79836,254.30973l12.39792-1.28931,3.94185,15.64676q-4.01052.71609-8.367,1.30459-4.11694.54942-7.9728.89518Z"/></g><g id="jambe_bas"><path class="cls-15" d="M45.49336,487.30194a99.12286,99.12286,0,0,0,51.28373,0,22.8275,22.8275,0,0,1,3.31915,15.72126,193.353,193.353,0,0,1-51.06679,6.89361,26.23167,26.23167,0,0,1-1.78426-3.19146C43.704,499.20008,44.55514,491.65845,45.49336,487.30194Z"/><path class="cls-16" d="M104.84319,503.0232a131.79632,131.79632,0,0,1-62.19375,5.36169,35.47371,35.47371,0,0,0-2.5532,22.21277,35.07214,35.07214,0,0,0,8.42554,16.21551,91.77534,91.77534,0,0,0,60.25531-9.32189,26.39188,26.39188,0,0,0-3.9339-34.46808Z"/><path class="cls-17" d="M108.77709,537.49128a73.82905,73.82905,0,0,1,2.29788,25.27661,72.8512,72.8512,0,0,1-2.29788,13.0213,132.38564,132.38564,0,0,0-5.87233,17.10638,134.47136,134.47136,0,0,0-4.34042,42.12763c-1.45642,17.6206-15.53726,29.33795-28.34043,28.08508-8.72312-.85364-16.5257-7.696-20.42553-16.99786a31.42706,31.42706,0,0,0,9.95744-14.15107q-.12767-34.09285-.25532-68.18566a20.21472,20.21472,0,0,0-2.29787-8.41,20.592,20.592,0,0,0-8.68085-8.55048,91.88564,91.88564,0,0,0,60.25531-9.32189Z"/><rect class="cls-18" x="55.92603" y="565.83171" width="29.87234" height="15.31915"/><rect class="cls-18" x="55.92603" y="594.68278" width="31.40426" height="12.76596"/><polygon class="cls-18" points="81.203 621.453 55.926 620.47 55.926 630.11 81.203 629.77 81.203 621.453"/><path class="cls-19" d="M99.075,634.51258a112.166,112.166,0,0,1-69.95745,11.59784,21.88116,21.88116,0,0,0-16.34042,1.16809A21.37907,21.37907,0,0,0,3.58561,656.47,102.08885,102.08885,0,0,0,2.56433,687H103.926V649.83173A24.715,24.715,0,0,0,99.075,634.51258Z"/><path class="cls-20" d="M29.11752,646.11042a36.86084,36.86084,0,0,1,3.57447,7.29577,36.89365,36.89365,0,0,1,2.04255,9.38507V678.6828L1.907,677.67145,3.58561,656.47A21.60777,21.60777,0,0,1,15.231,646.23053,21.42215,21.42215,0,0,1,29.11752,646.11042Z"/><polygon class="cls-21" points="2.564 687 1.907 678.683 103.926 679.585 103.926 687 2.564 687"/></g><g id="jambe_bas_2"><path class="cls-15" d="M255.01719,473.74711a99.12286,99.12286,0,0,0,30.57966-41.16923,22.82746,22.82746,0,0,1,14.59976,6.7098,193.35273,193.35273,0,0,1-24.91629,45.10564,26.23129,26.23129,0,0,1-3.626-.47067C263.50171,482.27826,257.955,477.098,255.01719,473.74711Z"/><path class="cls-16" d="M303.02714,435.477a131.79631,131.79631,0,0,1-32.7809,53.1246,35.47372,35.47372,0,0,0,16.3094,15.29475,35.072,35.072,0,0,0,18.0414,2.90525,91.77522,91.77522,0,0,0,28.44589-53.92988A26.3919,26.3919,0,0,0,303.02714,435.477Z"/><path class="cls-17" d="M333.04293,452.87168A73.8291,73.8291,0,0,1,354.70452,466.099a72.85262,72.85262,0,0,1,9.083,9.60907,132.38176,132.38176,0,0,0,10.231,14.91441,134.47082,134.47082,0,0,0,31.23082,28.6044c13.27692,11.67606,14.28712,29.96665,5.647,39.49763-5.88674,6.49369-16.03214,8.67741-25.82485,6.26153a31.427,31.427,0,0,0-5.42264-16.43162l-54.88991-40.453a20.21447,20.21447,0,0,0-8.12154-3.1701,20.59184,20.59184,0,0,0-12.04034,1.87024,91.88578,91.88578,0,0,0,28.44589-53.92988Z"/><rect class="cls-18" x="324.39859" y="497.11541" width="29.87234" height="15.31915" transform="translate(-268.22515 476.19485) rotate(-53.39579)"/><rect class="cls-18" x="346.22542" y="514.21932" width="31.40426" height="12.76596" transform="translate(-271.80983 500.72149) rotate(-53.39579)"/><polygon class="cls-18" points="384.003 525.073 368.142 544.778 375.881 550.526 390.68 530.032 384.003 525.073"/><path class="cls-19" d="M405.14386,518.51252a112.16582,112.16582,0,0,1-32.40405,63.07561A21.88121,21.88121,0,0,0,363.934,595.4023a21.3791,21.3791,0,0,0,1.898,12.85945,102.08936,102.08936,0,0,0,23.89968,19.02438L450.172,545.91562l-10.98111-8.15654-18.85661-14.0063a24.71511,24.71511,0,0,0-15.19042-5.24026Z"/><path class="cls-20" d="M372.73981,581.58813a36.83264,36.83264,0,0,1,16.74028,5.43732l12.75731,9.47587-20.38643,25.75-16.019-13.98962a21.07188,21.07188,0,0,1,6.90784-26.67362Z"/><polygon class="cls-21" points="389.732 627.286 382.663 622.854 444.219 541.494 450.172 545.916 389.732 627.286"/></g><g id="jambe"><circle class="cls-22" cx="72.52178" cy="464.49342" r="32.32141"/><path class="cls-23" d="M80.13962,451.08417a22.56251,22.56251,0,0,1-17.49452-8.9379q-.43838-.58313-.84672-1.16561c-20.31216-28.94908.817-73.19419,5.56574-82.41374a22.9245,22.9245,0,0,0,.986-2.17494c6.03872-15.49086,24.05845-54.87354,63.91631-70.13474l.18451-.07042a23.03738,23.03738,0,0,1,28.45068,10.891,90.39593,90.39593,0,0,1,9.66269,29.77518,92.24672,92.24672,0,0,1-10.1141,55.88121c-.2539.47286-.48406.95087-.70319,1.44081-4.54447,10.16089-29.80567,63.0347-73.49715,66.72147A57.30109,57.30109,0,0,1,80.13962,451.08417Z"/></g><g id="jambe_2"><circle class="cls-22" cx="253.30347" cy="439.13869" r="32.32141"/><path class="cls-23" d="M253.8333,419.27526a22.56253,22.56253,0,0,1-15.85225,11.60389q-.718.1292-1.42191.23187c-34.9919,5.11852-65.00287-33.65536-71.10077-42.04381a22.92245,22.92245,0,0,0-1.4989-1.859c-11.11856-12.36165-38.1856-46.17114-33.88586-88.63366l.02011-.19646a23.0374,23.0374,0,0,1,22.52511-20.51036A90.39593,90.39593,0,0,1,183.558,282.632a92.24661,92.24661,0,0,1,45.35829,34.1706c.3081.43947.63148.86006.97048,1.27616,7.0305,8.62948,42.88907,54.97525,26.52758,95.655A57.29692,57.29692,0,0,1,253.8333,419.27526Z"/></g><g id="Calque_10" data-name="Calque 10"><path class="cls-14" d="M181.03242,261.84629a172.22491,172.22491,0,0,1-66.10721,9.02066,24.80472,24.80472,0,0,0-5.63747,11.3052,25.06528,25.06528,0,0,0,1.78723,15.31913c13.12366-1.75562,26.85045-3.93747,41.10639-6.63828,12.83963-2.43249,27.568-7.18354,39.26375-9.99973.38327-.55267,1.4821-3.77694-.71056-10.1705C188.373,263.79685,181.5198,261.96726,181.03242,261.84629Z"/><polygon class="cls-24" points="137.798 270.867 154.138 268.667 157.032 289.917 140.112 293.039 137.798 270.867"/><path class="cls-24" d="M114.92521,270.86695l8.5522.77539a59.79151,59.79151,0,0,1-1.21376,24.26758L111.075,297.49128a24.61741,24.61741,0,0,1,3.85024-26.62433Z"/></g><g id="pouce"><path class="cls-25" d="M72.52178,200.59766a22.87073,22.87073,0,0,0-7.65958-10.08508A23.30862,23.30862,0,0,0,49.333,186.17215a4.99563,4.99563,0,0,0-3.10907,2.04254,5.27738,5.27738,0,0,0,.46974,6.00705,41.69623,41.69623,0,0,1,25.82813,6.37592Z"/></g><g id="lanière"><polygon class="cls-26" points="186.479 224.816 66.125 217.832 57.957 221.709 188.997 239.239 186.479 224.816"/><polygon class="cls-26" points="57.957 197.662 49.029 197.662 61.752 147.279 68.305 155.951 57.957 197.662"/></g><g id="avant_bras"><path class="cls-25" d="M72.52178,200.59766a262.3613,262.3613,0,0,1,89.51073-7.934,17.22325,17.22325,0,0,0,5.99873,22.44058,144.89479,144.89479,0,0,1-49.552,3.09131,70.75166,70.75166,0,0,0-28.59574,3.46594c-7.10975.49707-13.66153-2.94366-16.59574-8.68084A16.55567,16.55567,0,0,1,72.52178,200.59766Z"/><path class="cls-27" d="M130.92046,197.66531h21.56648c2.503-.12386,4.58175,2.79071,4.545,6.26052-.036,3.40088-2.0923,6.19609-4.545,6.07364q-10.15941.85232-20.31883,1.70458c-1.99443-1.28018-3.337-3.98437-3.47559-7.01935A10.25032,10.25032,0,0,1,130.92046,197.66531Z"/><path class="cls-28" d="M72.52178,200.59766a40.79992,40.79992,0,0,0-6.6383-3.44681,43.55982,43.55982,0,0,0-22.68686-2.55319c-.812,3.9891-2.49646,15.09924,3.78735,25.37167a30.68678,30.68678,0,0,0,5.11227,6.28791,146.96844,146.96844,0,0,1,37.78724-4.59574A16.43216,16.43216,0,0,1,74.28121,214.622C70.11687,208.33441,72.23244,201.48178,72.52178,200.59766Z"/><path class="cls-25" d="M43.19662,194.59766l-7.69612-.49619a36.32939,36.32939,0,0,0-1.76756,5.545,37.17283,37.17283,0,0,0-.53031,13.84485l9.994-2.98627a38.795,38.795,0,0,1,0-15.90735Z"/><path class="cls-25" d="M52.09624,226.25724,41.11752,231.619a34.51792,34.51792,0,0,1-3.57446-5.10638,35.2979,35.2979,0,0,1-4.34043-13.0213l9.994-2.98627a30.47282,30.47282,0,0,0,8.89962,15.75223Z"/></g><g id="bras"><circle class="cls-11" cx="177.33029" cy="200.59767" r="17.23404"/><path class="cls-29" d="M87.075,125.6615a41.24412,41.24412,0,0,0,17.70212,24.85106,99.32716,99.32716,0,0,1,37.95746-27.74467,17.46443,17.46443,0,0,0-3.23405-11.40425c-4.73-6.44342-12.2436-6.92937-13.27659-6.97873A39.68871,39.68871,0,0,0,87.075,125.6615Z"/><path class="cls-29" d="M104.77709,150.51256c.66087,2.31351,4.55538,15.11434,17.1915,21.10639a31.03416,31.03416,0,0,0,14.46808,2.89361,99.02775,99.02775,0,0,0,25.53192-19.234,97.4526,97.4526,0,0,0,8.85106-10.7234,44.59173,44.59173,0,0,0-28.0851-21.78723,124.00532,124.00532,0,0,0-37.95746,27.74467Z"/><path class="cls-29" d="M170.81965,144.55512c2.1015.88582,14.97362,6.56,19.40425,20.59575a32.32786,32.32786,0,0,1,.51065,17.19148,43.93284,43.93284,0,0,1-25.87235,13.95746,27.438,27.438,0,0,1-17.3617-4.766,27.71926,27.71926,0,0,1-11.06383-17.02129,98.23765,98.23765,0,0,0,34.383-29.95744Z"/></g><g id="tete"><path class="cls-30" d="M36.18135,11.78916h9.53192c14.065.74788,24.84252,12.63125,24.51064,25.87234-.4741,18.91568-23.22378,24.79657-23.3193,24.68758l.00015-.00673c0-.68085-14.97873,2.383-14.97873,2.383a69.39817,69.39817,0,0,1-1.7146-37.14914A66.28217,66.28217,0,0,1,36.18135,11.78916Z"/><path class="cls-31" d="M31.52675,22.84118h12.144c6.97929.77854,10.01242,3.86253,11.06383,5.1182,5.95426,7.111,3.83369,21.84458-7.82978,34.383L31.926,64.72533a68.35105,68.35105,0,0,1-.39928-41.88415Z"/><path class="cls-3" d="M45.71327,11.78916a121.172,121.172,0,0,1,82.55319-4.766,62.30107,62.30107,0,0,1-15.31914,5.78724A62.65336,62.65336,0,0,1,90.1388,13.83171,52.74422,52.74422,0,0,0,62.25,18.92192a25.97983,25.97983,0,0,0-16.53674-7.13276Z"/><path class="cls-32" d="M143.926,15.19342A51.95876,51.95876,0,0,0,128.26646,7.0232a62.38442,62.38442,0,0,1-17.9712,6.34069,62.40183,62.40183,0,0,1-20.15646.46782A52.85993,52.85993,0,0,0,62.25,18.92192c1.21214,1.22194,8.93222,9.25588,7.80368,20.44171C68.93426,50.45925,59.57084,60.0721,46.90476,62.34235L31.926,64.72533c.766,4.82979,2.05339,4.72083,2.42554,6.29787.17508.742,1.21969,1.33876,1.65957,2.04255,1.13866,1.82183,3.543,2.37606,5.44681,2.5532q3.9375-.34042,7.875-.68085a89.92934,89.92934,0,0,0,15.95476-2.89362,89.92929,89.92929,0,0,0,14.97872-5.617A19.95185,19.95185,0,0,0,88.77709,52.47q.85107-8.51062,1.70213-17.02127a4.01728,4.01728,0,0,1,1.36043-4.10965,4.16374,4.16374,0,0,1,3.57575-.6563l9.02127-.34043q2.98072-1.29468,6.12767-2.89362a108.2137,108.2137,0,0,0,13.95744-8.52681,40.54439,40.54439,0,0,1,4.25531-1.686A41.85142,41.85142,0,0,1,143.926,15.19342Z"/><path class="cls-33" d="M128.77709,17.236l-.51063,7.57447a6.71227,6.71227,0,0,1-6.46808,7.14894,30.838,30.838,0,0,0-16.21277,8.17021,30.3465,30.3465,0,0,0-7.2766,11.234,16.97882,16.97882,0,0,1-13.5244,10.78561A68.82479,68.82479,0,0,0,90.39413,38.47q.07859-1.53525.08509-3.02128a4.01728,4.01728,0,0,1,1.36043-4.10965,4.16374,4.16374,0,0,1,3.57575-.6563l9.02127-.34043q3.7746-1.65966,7.72029-3.62335A173.84207,173.84207,0,0,0,128.77709,17.236Z"/></g></svg>