<svg xmlns="http://www.w3.org/2000/svg" viewBox="0 0 136.8466 114.41558"><defs><style>.cls-1{fill:#fffefa;}.cls-1,.cls-10,.cls-2,.cls-3,.cls-4,.cls-5,.cls-6,.cls-7,.cls-8,.cls-9{stroke:#1d1d1b;stroke-linecap:round;stroke-linejoin:round;stroke-width:3px;}.cls-2{fill:#140a06;}.cls-3{fill:#14feff;}.cls-4{fill:#1d1d1d;}.cls-5{fill:none;}.cls-6{fill:#5e4e41;}.cls-7{fill:#38312b;}.cls-8{fill:#393532;}.cls-9{fill:#5a5142;}.cls-10{fill:#2f2b28;}</style></defs><title>Fichier 3</title><g id="Calque_2" data-name="Calque 2"><g id="tete"><path class="cls-1" d="M16.34907,93.97942c3.05018,1.84363,5.73518,3.02862,9.19148,2.72339a118.54261,118.54261,0,0,0,30.46811-6.80854,118.267,118.267,0,0,0,19.38708-9.20172,3.55739,3.55739,0,0,0,1.68595-3.77014A53.29328,53.29328,0,0,1,78.62,48.36394c.432-1.22253.90188-2.39325,1.40045-3.51312a3.48111,3.48111,0,0,1,1.50836-1.62165A32.406,32.406,0,0,0,96.3333,25.83123a3.50263,3.50263,0,0,1,2.89688-2.2934,18.84,18.84,0,0,0,10.32264-4.37994l.03521-.03095a3.51946,3.51946,0,0,0-.43377-5.5423A32.18432,32.18432,0,0,0,98.0512,8.873a100.349,100.349,0,0,0-26.89362-2.0426C44.40169,8.43523,24.82674,20.52928,15.17048,27.6353a3.55854,3.55854,0,0,1-1.94052.69324q-.661.0315-1.322.06293a3.464,3.464,0,0,0-2.12489.83941,20.08283,20.08283,0,0,0-5.6017,8.16571,3.52506,3.52506,0,0,0-.14192.49585,79.61636,79.61636,0,0,0-1.6478,16.938A75.78774,75.78774,0,0,0,3.647,67.53258C5.45522,77.16985,7.61918,88.70281,16.34907,93.97942Z"/><path class="cls-2" d="M4.18134,37.39659a14.27135,14.27135,0,0,1,7.72659-9.00512,119.027,119.027,0,0,1,33.29219.65173,28.41958,28.41958,0,0,1,14.5532,29.10639c-1.71216,11.29-11.00875,21.65967-22.21276,24.383-3.436,1.172-7.03251,1.17542-12.24418,1.70691a59.14457,59.14457,0,0,1-17.47154-.82562,81.87554,81.87554,0,0,1-3.6435-46.01728Z"/><path class="cls-3" d="M4.03942,37.89244H28.59666A23.14742,23.14742,0,0,1,41.42979,41.65l.11076.07406q.06283.04226.12511.08469a19.792,19.792,0,0,1,8.54028,15.51041q.0087.20125.01549.4049a41.01849,41.01849,0,0,1-.34043,6.80853,31.0941,31.0941,0,0,1-7.37964,13.2309,29.88394,29.88394,0,0,1-4.14354,3.61865,7.77245,7.77245,0,0,1-2.66743,1.23117,57.4986,57.4986,0,0,1-11.00089,1.664,78.47422,78.47422,0,0,1-16.86467-.86343C5.2701,79.41152,3.1695,71.36425,1.881,60.61766A53.89772,53.89772,0,0,1,4.03942,37.89244Z"/><path class="cls-4" d="M15.17048,27.6353c3.0764-.126,6.28093-.17425,9.60414-.124a171.70441,171.70441,0,0,1,20.4255,1.53192A25.407,25.407,0,0,1,56.0512,20.61766a25.02461,25.02461,0,0,1,9.57446-1.78723A52.25293,52.25293,0,0,0,85.15758,16.022a52.02988,52.02988,0,0,0,13.46207-7.019,101.41076,101.41076,0,0,0-31.50632-1.8451A104.47506,104.47506,0,0,0,15.17048,27.6353Z"/><path class="cls-4" d="M97.14115,24.55709l5.88878,8.95419a35.9896,35.9896,0,0,1-3.70212,7.91492A36.6831,36.6831,0,0,1,88.22143,52.66027c-.53446,3.2893-.9795,6.82855-1.27662,10.5957a129.70688,129.70688,0,0,0-.25531,16.34045A62.652,62.652,0,0,1,72.264,88.4049a25.41378,25.41378,0,0,1-11.616-.32874A60.1929,60.1929,0,0,0,76.7886,79.17479a58.92551,58.92551,0,0,1,3.23181-34.324A41.94482,41.94482,0,0,0,90.264,37.21343C95.22054,32.17046,95.76706,27.94173,97.14115,24.55709Z"/><path class="cls-5" d="M98.0512,8.873a16.53138,16.53138,0,0,1,17.74469-6.89361A34.29994,34.29994,0,0,1,132.264,18.4475a34.37267,34.37267,0,0,1,1.65957,24,70.85332,70.85332,0,0,0-9.8298,26.68084,67.89055,67.89055,0,0,0,9.8298,43.78724,59.51082,59.51082,0,0,1-22.93934-24.842,55.39162,55.39162,0,0,0-8.30228-12.38395q-.84777-.95223-1.69456-1.96563A82.70685,82.70685,0,0,1,88.22143,52.66027a36.20827,36.20827,0,0,0,14.8085-19.149q-2.94438-4.47711-5.8888-8.95422a15.70273,15.70273,0,0,0,6.8274-1.81189,15.979,15.979,0,0,0,6.69668-6.90857A20.44846,20.44846,0,0,0,98.0512,8.873Z"/><path class="cls-6" d="M126.28264,9.59923A31.89121,31.89121,0,0,1,118.087,24.82549a31.89523,31.89523,0,0,1-15.0571,8.68579q-2.94438-4.47711-5.8888-8.95422a16.18714,16.18714,0,0,0,9.42228-3.55433,15.72636,15.72636,0,0,0,4.1018-5.16613A21.01305,21.01305,0,0,0,98.0512,8.873c.38873-.56988,5.23373-7.41082,13.957-7.3717C121.18206,1.54247,126.01107,9.15392,126.28264,9.59923Z"/><path class="cls-7" d="M89.63579,51.70183a20.95833,20.95833,0,0,0,9.26648,3.80945c12.72052,1.77216,27.10154-9.46979,36.07383-27.98669a33.23324,33.23324,0,0,0-1.6637-6.52979,33.881,33.881,0,0,0-7.02976-11.39557,32.28727,32.28727,0,0,1-9.5993,16.58472,31.96019,31.96019,0,0,1-13.65341,7.32733A36.208,36.208,0,0,1,89.63579,51.70183Z"/><path class="cls-8" d="M89.63579,51.70183l-1.41436.95844a83.22182,83.22182,0,0,0,7.10476,13.40527c1.51487,2.318,3.05551,4.42163,4.56851,6.32007a42.09085,42.09085,0,0,0,10.41181-1.0445,42.4531,42.4531,0,0,0,14.559-6.41211,71.00283,71.00283,0,0,1,9.058-22.4815,34.91548,34.91548,0,0,0,1.05256-14.92291c-8.97229,18.5169-23.35331,29.75885-36.07383,27.98669A20.95833,20.95833,0,0,1,89.63579,51.70183Z"/><path class="cls-9" d="M99.8947,72.38561A42.10094,42.10094,0,0,0,124.8655,64.929a62.69573,62.69573,0,0,0-.80417,19.61383,12.57372,12.57372,0,0,1-4.05267,5.01105,12.72886,12.72886,0,0,1-7.62854,2.38294A52.9544,52.9544,0,0,0,99.8947,72.38561Z"/><path class="cls-10" d="M133.92354,112.91558a68.25162,68.25162,0,0,1-9.86221-28.37275,12.57372,12.57372,0,0,1-4.05267,5.01105,12.72886,12.72886,0,0,1-7.62854,2.38294,70.39916,70.39916,0,0,0,21.54342,20.97876Z"/></g></g></svg>