<svg id="Calque_1" data-name="Calque 1" xmlns="http://www.w3.org/2000/svg" viewBox="0 0 98.53853 150.2295"><defs><style>.cls-1{fill:#5b5243;}.cls-1,.cls-3,.cls-4,.cls-5,.cls-6,.cls-7,.cls-8{stroke:#1d1d1b;}.cls-1,.cls-10,.cls-11,.cls-12,.cls-13,.cls-14,.cls-15,.cls-16,.cls-17,.cls-18,.cls-19,.cls-2,.cls-20,.cls-21,.cls-22,.cls-23,.cls-24,.cls-25,.cls-26,.cls-27,.cls-28,.cls-29,.cls-3,.cls-30,.cls-31,.cls-32,.cls-4,.cls-5,.cls-6,.cls-7,.cls-8,.cls-9{stroke-linecap:round;stroke-linejoin:round;stroke-width:0.65503px;}.cls-2{fill:#1e1e1e;}.cls-10,.cls-11,.cls-12,.cls-13,.cls-14,.cls-15,.cls-16,.cls-17,.cls-18,.cls-19,.cls-2,.cls-20,.cls-21,.cls-22,.cls-23,.cls-24,.cls-25,.cls-26,.cls-27,.cls-28,.cls-29,.cls-30,.cls-31,.cls-32,.cls-9{stroke:#1e1e1c;}.cls-3{fill:#493728;}.cls-4{fill:#716650;}.cls-5{fill:#4a4131;}.cls-6{fill:#60513c;}.cls-7{fill:#95825c;}.cls-24,.cls-8{fill:#2b2c2c;}.cls-9{fill:#414142;}.cls-10{fill:#313133;}.cls-11{fill:#b2b4b7;}.cls-12{fill:#272729;}.cls-13{fill:#353537;}.cls-14{fill:#c6c6c8;}.cls-15{fill:#714118;}.cls-16{fill:#f3f0e1;}.cls-17{fill:#43959b;}.cls-18{fill:#160a06;}.cls-19{fill:#3b3128;}.cls-20{fill:#574b3f;}.cls-21{fill:#1b1c1e;}.cls-22{fill:#423d2a;}.cls-23{fill:#76777c;}.cls-25{fill:#6b604c;}.cls-26{fill:#6ac6db;}.cls-27{fill:#808186;}.cls-28{fill:#e3e3e2;}.cls-29{fill:#120b09;}.cls-30{fill:#6fc7da;}.cls-31{fill:#fffffb;}.cls-32{fill:#393532;}</style></defs><title>Plan de travail 1</title><path class="cls-1" d="M28.48276,7.49185A6.0406,6.0406,0,0,1,37.40229,4.032a13.58568,13.58568,0,0,0,2.45287,1.453,13.5883,13.5883,0,0,0,2.97318.96628,20.77043,20.77043,0,0,0,3.12184-1.2636A20.77331,20.77331,0,0,0,49.072,3.25507a9.60956,9.60956,0,0,1-2.3617,5.52808,9.31843,9.31843,0,0,1-3.13867,2.27651c-4.58859,3.73556-10.11336,3.97846-12.93333,1.41226A7.47169,7.47169,0,0,1,28.48276,7.49185Z"/><polygon class="cls-2" points="25.733 5.894 26.364 5.262 28.713 6.884 28.483 7.492 25.733 5.894"/><path class="cls-3" d="M31.34444,19.23287a19.5082,19.5082,0,0,0,7.21,3.31069,19.54253,19.54253,0,0,0,8.808-.03091A9.98981,9.98981,0,0,0,36.659,14.1699a4.03756,4.03756,0,0,0-4.79424,1.015A3.98058,3.98058,0,0,0,31.34444,19.23287Z"/><path class="cls-4" d="M47.36244,22.51265c.50448,2.63493.95748,5.39749,1.33792,8.28147A144.82649,144.82649,0,0,1,49.9268,47.54194a9.56981,9.56981,0,0,1-6.80114,6.20659,15.45278,15.45278,0,0,1-5.7977-.63188L31.34444,19.23287a19.5082,19.5082,0,0,0,7.21,3.31069A19.54253,19.54253,0,0,0,47.36244,22.51265Z"/><path class="cls-5" d="M49.9268,47.54194a8.68645,8.68645,0,0,1-2.58846,6.74388,8.57764,8.57764,0,0,1-9.45291,1.20937L37.328,53.11665a15.43073,15.43073,0,0,0,5.7977.63188,9.56981,9.56981,0,0,0,6.80114-6.20659Z"/><path class="cls-6" d="M48.81759,32.987a5.6757,5.6757,0,0,1,4.231,2.60137,5.734,5.734,0,0,1,.892,3.21981v6.67111a6.83183,6.83183,0,0,1-1.11494,2.59643,4.26385,4.26385,0,0,1-2.89885,1.78c-.06837-4.12913-.61727-7.76226-1.01892-12.25884C48.76782,36.02877,48.99264,34.501,48.81759,32.987Z"/><path class="cls-3" d="M53.94059,38.80818A2.977,2.977,0,0,1,51.274,40.35135c-1.31493-.04549-1.57127-.55929-1.68177-.70137-.21261-2.07515-.562-4.58783-.77462-6.663A5.163,5.163,0,0,1,52.406,34.78152,5.82765,5.82765,0,0,1,53.94059,38.80818Z"/><path class="cls-7" d="M53.47019,38.44539l.48653-.0598a.88.88,0,0,1,.98732.87339v1.36613a1.13444,1.13444,0,0,1-1.13445,1.13444h-.14217a.73027.73027,0,0,1-.73028-.73027V39.048A.60711.60711,0,0,1,53.47019,38.44539Z"/><path class="cls-7" d="M46.69141,20.31367H47.496a1.051,1.051,0,0,1,1.04426.93222l.37857,3.32842a1.3751,1.3751,0,0,1-1.19159,1.51936l-.47019.06022a.69568.69568,0,0,1-.77632-.58652l-.64164-4.26346A.862.862,0,0,1,46.69141,20.31367Z"/><path class="cls-6" d="M40.63562,47.54194a3.0589,3.0589,0,0,0,1.15211.97975,3.207,3.207,0,0,0,2.34138.13518,3.2803,3.2803,0,0,0,3.23333-2.03928V41.131a3.36926,3.36926,0,0,0-6.72682,0Z"/><path class="cls-3" d="M47.381,42.6094H40.63562a4.05421,4.05421,0,0,1,.96491-3.62954,3.74489,3.74489,0,0,1,2.4519-1.01923A3.69638,3.69638,0,0,1,47.381,42.6094Z"/><rect class="cls-7" x="43.12566" y="41.13102" width="2.11839" height="2.74078" rx="0.62925"/><rect class="cls-8" x="33.53716" y="20.66102" width="1.33793" height="3.15906" transform="translate(-3.0211 38.93889) rotate(-57.19031)"/><rect class="cls-8" x="40.39734" y="48.89749" width="1.33793" height="3.15906" transform="translate(-6.85619 6.45651) rotate(-8.29956)"/><path class="cls-2" d="M14.80614,19.23287a7.63632,7.63632,0,0,0-1.93257-1.92954c-.83136-.57409-1.62335-3.10606-2.18283-3.27049-.52913-5.51514,2.21648-7.03735,4.44753-7.12314,1.8605-.07155,4.04512,2.38029,5.04746,5.82237l.86408.58779a10.81675,10.81675,0,0,1-1.93256,3.01719A10.95069,10.95069,0,0,1,14.80614,19.23287Z"/><path class="cls-9" d="M21.04981,13.31986a3.84184,3.84184,0,0,1,6.987,2.71987,10.22868,10.22868,0,0,1-4.72918,3.20855,9.62879,9.62879,0,0,1-2.25779.41659A10.89605,10.89605,0,0,0,15.84675,23.77a11.38749,11.38749,0,0,0-1.33793,9.06819A17.425,17.425,0,0,1,11.31266,25.048a8.07514,8.07514,0,0,1,1.63525-4.10252,7.83226,7.83226,0,0,1,1.85823-1.7126,10.8084,10.8084,0,0,0,6.24367-5.913Z"/><path class="cls-10" d="M28.03678,16.03973a5.24519,5.24519,0,0,1,4.68276,3.2705,4.80837,4.80837,0,0,1-.07434,3.20242,6.26118,6.26118,0,0,1-.892.36539,6.38712,6.38712,0,0,1-2.22988.29732,8.63946,8.63946,0,0,0-4.7672-.50236c-4.2173.80568-7.64386,5.11905-8.53777,10.83415a1.13053,1.13053,0,0,1-.99376.1712,1.08025,1.08025,0,0,1-.71582-.84017A11.38749,11.38749,0,0,1,15.84675,23.77a10.89605,10.89605,0,0,1,5.20306-4.10512,9.93316,9.93316,0,0,0,6.987-3.62514Z"/><path class="cls-11" d="M16.2184,33.50715c-1.13944,2.23407-.9765,4.60625.3159,5.872a3.56012,3.56012,0,0,0,1.897.93406,34.151,34.151,0,0,0,17.057-12.5852c.077-.399,1.02466-1.63431-.65374-3.64491a5.51559,5.51559,0,0,0-2.18937-1.57047,6.37743,6.37743,0,0,1-3.12183.66271,8.42492,8.42492,0,0,0-4.52755-.54366C20.75766,23.34515,17.237,27.67762,16.2184,33.50715Z"/><path class="cls-11" d="M35.48831,27.728a5.483,5.483,0,0,1,2.67586,2.78736c.60105,1.44291,2.1127,4.70346,2.00689,5.18448-1.35658,1.9767-4.98239,2.34911-7.5816,4.627a35.8993,35.8993,0,0,1-12.89905,7.21507,4.8106,4.8106,0,0,1-1.25907-7.22871A34.27,34.27,0,0,0,28.8544,34.69642,34.18776,34.18776,0,0,0,35.48831,27.728Z"/><path class="cls-11" d="M19.69041,47.54194a3.54337,3.54337,0,0,0,2.47434,3.93435,35.15042,35.15042,0,0,0,11.14942-1.33793,34.62009,34.62009,0,0,0,4.68276-1.72816,10.95675,10.95675,0,0,0,2.34137-3.45632,12.24251,12.24251,0,0,0-.16724-9.254,72.52836,72.52836,0,0,1-13.02539,8.54664A72.17388,72.17388,0,0,1,19.69041,47.54194Z"/><path class="cls-11" d="M22.16475,51.47629a1.40244,1.40244,0,0,0,0,2.73161,20.921,20.921,0,0,0,6.46666,1.22643,21.30709,21.30709,0,0,0,10.20172-2.31768,2.72737,2.72737,0,0,0,1.00345-2.92254,2.84467,2.84467,0,0,0-1.83965-1.78391,34.85567,34.85567,0,0,1-15.83218,3.06609Z"/><path class="cls-12" d="M38.83313,53.11665a3.88008,3.88008,0,0,0-.27873,1.31424,4.1674,4.1674,0,0,0,.892,2.64187,42.16332,42.16332,0,0,1-12.56672,2.1389l-.79285-4.009a21.06644,21.06644,0,0,0,12.74635-2.086Z"/><path class="cls-13" d="M30.00651,55.42721l2.707-.28151.86068,3.41635q-.87567.15636-1.82687.28485-.8989.12-1.7408.19546Z"/><path class="cls-14" d="M9.85238,106.29936a21.6426,21.6426,0,0,0,11.19743,0,4.98424,4.98424,0,0,1,.72471,3.43263,42.21723,42.21723,0,0,1-11.15006,1.50517,5.72846,5.72846,0,0,1-.38958-.69684A6.68083,6.68083,0,0,1,9.85238,106.29936Z"/><path class="cls-15" d="M22.811,109.732a28.7766,28.7766,0,0,1-13.57956,1.17068,7.74548,7.74548,0,0,0-.55747,4.85,7.65766,7.65766,0,0,0,1.83966,3.54054,20.0385,20.0385,0,0,0,13.1563-2.03537A5.76248,5.76248,0,0,0,22.811,109.732Z"/><path class="cls-16" d="M23.66992,117.25784a16.11981,16.11981,0,0,1,.50173,5.519,15.9067,15.9067,0,0,1-.50173,2.84311,28.90592,28.90592,0,0,0-1.28218,3.73505,29.36091,29.36091,0,0,0-.9477,9.19826c-.318,3.84734-3.39244,6.40573-6.18792,6.13218a5.74666,5.74666,0,0,1-4.45977-3.71136,6.862,6.862,0,0,0,2.17414-3.08978l-.05575-14.88785a4.41384,4.41384,0,0,0-.50172-1.83627,4.4961,4.4961,0,0,0-1.8954-1.86693,20.06259,20.06259,0,0,0,13.1563-2.03537Z"/><rect class="cls-17" x="12.13028" y="123.44577" width="6.52241" height="3.34482"/><rect class="cls-17" x="12.13028" y="129.74519" width="6.85689" height="2.78735"/><polygon class="cls-17" points="17.649 135.59 12.13 135.376 12.13 137.481 17.649 137.406 17.649 135.59"/><path class="cls-18" d="M21.55154,138.44173A24.49061,24.49061,0,0,1,6.27684,140.974a4.77764,4.77764,0,0,0-3.56782.255A4.668,4.668,0,0,0,.70213,143.236a22.29068,22.29068,0,0,0-.223,6.666H22.61073v-8.11542a5.39646,5.39646,0,0,0-1.05919-3.34483Z"/><path class="cls-19" d="M6.27684,140.974a8.04865,8.04865,0,0,1,.78046,1.593,8.05564,8.05564,0,0,1,.446,2.04916v3.4698l-7.16766-.22082L.70213,143.236a4.71785,4.71785,0,0,1,2.54269-2.23572A4.67735,4.67735,0,0,1,6.27684,140.974Z"/><polygon class="cls-20" points="0.479 149.902 0.336 148.086 22.611 148.283 22.611 149.902 0.479 149.902"/><path class="cls-14" d="M55.60039,103.33977a21.64291,21.64291,0,0,0,6.67684-8.989,4.98422,4.98422,0,0,1,3.18775,1.465,42.21651,42.21651,0,0,1-5.44029,9.84849,5.72934,5.72934,0,0,1-.7917-.10277A6.68077,6.68077,0,0,1,55.60039,103.33977Z"/><path class="cls-15" d="M66.083,94.98376a28.777,28.777,0,0,1-7.15747,11.59937,7.74539,7.74539,0,0,0,3.561,3.33949,7.6576,7.6576,0,0,0,3.93921.63434,20.03849,20.03849,0,0,0,6.21095-11.77519,5.76245,5.76245,0,0,0-6.55373-3.798Z"/><path class="cls-16" d="M72.63674,98.78177a16.12,16.12,0,0,1,4.72965,2.88809,15.90789,15.90789,0,0,1,1.9832,2.09807,28.905,28.905,0,0,0,2.23386,3.25646,29.36092,29.36092,0,0,0,6.819,6.24556c2.89892,2.54938,3.11949,6.543,1.233,8.624a5.74665,5.74665,0,0,1-5.63867,1.36716,6.862,6.862,0,0,0-1.184-3.58773L70.828,110.84078a4.41382,4.41382,0,0,0-1.77328-.69217,4.49615,4.49615,0,0,0-2.62892.40835,20.06255,20.06255,0,0,0,6.21095-11.77519Z"/><rect class="cls-17" x="70.74931" y="108.44206" width="6.52241" height="3.34482" transform="translate(-58.51776 103.86869) rotate(-53.39579)"/><rect class="cls-17" x="75.51504" y="112.17658" width="6.85689" height="2.78735" transform="translate(-59.30045 109.2239) rotate(-53.39579)"/><polygon class="cls-17" points="83.763 114.546 80.3 118.849 81.99 120.104 85.221 115.629 83.763 114.546"/><path class="cls-18" d="M88.37945,113.114a24.49055,24.49055,0,0,1-7.07519,13.7721,4.77758,4.77758,0,0,0-1.92268,3.01622,4.66788,4.66788,0,0,0,.41441,2.80777,22.29048,22.29048,0,0,0,5.21832,4.15383L98.211,119.09723l-2.39765-1.78092-4.1172-3.05817a5.39633,5.39633,0,0,0-3.31672-1.14417Z"/><path class="cls-19" d="M81.30426,126.88607a8.04195,8.04195,0,0,1,3.65512,1.1872l2.78547,2.069-4.45123,5.62234L79.796,132.71006a4.60087,4.60087,0,0,1,1.50827-5.824Z"/><polygon class="cls-20" points="85.014 136.864 83.471 135.896 96.911 118.132 98.211 119.097 85.014 136.864"/><circle class="cls-21" cx="15.75384" cy="101.31929" r="7.05714"/><path class="cls-22" d="M17.41714,98.39148A4.92639,4.92639,0,0,1,13.59734,96.44q-.09572-.12732-.18488-.2545c-4.435-6.32082.17839-15.98142,1.21524-17.99444a5.004,5.004,0,0,0,.2153-.47488c1.31851-3.38232,5.253-11.98124,13.95566-15.31341l.04028-.01538a5.03,5.03,0,0,1,6.212,2.378,19.73718,19.73718,0,0,1,2.10978,6.50119,20.14139,20.14139,0,0,1-2.20834,12.20126c-.05544.10324-.10569.20762-.15354.31459C33.80659,86.00091,28.291,97.54552,18.75128,98.3505A12.513,12.513,0,0,1,17.41714,98.39148Z"/><circle class="cls-21" cx="55.22621" cy="95.78327" r="7.05714"/><path class="cls-22" d="M55.34189,91.44623a4.92633,4.92633,0,0,1-3.46122,2.53363q-.15677.0282-.31047.05063c-7.64022,1.11759-14.1929-7.34841-15.52433-9.18a5.00723,5.00723,0,0,0-.32727-.4059c-2.42766-2.69907-8.33755-10.08113-7.39874-19.35251l.0044-.0429a5.03,5.03,0,0,1,4.91819-4.47828,19.73735,19.73735,0,0,1,6.75534,1.04023,20.14141,20.14141,0,0,1,9.90365,7.4609c.06727.096.13788.18779.2119.27864,1.535,1.88419,9.36451,12.00345,5.7921,20.88557A12.50852,12.50852,0,0,1,55.34189,91.44623Z"/><path class="cls-13" d="M39.44635,57.07276a37.604,37.604,0,0,1-14.434,1.9696,5.41592,5.41592,0,0,0-1.2309,2.46841,5.47284,5.47284,0,0,0,.39023,3.34482c2.86546-.38333,5.8626-.85972,8.97528-1.44942,2.80344-.53112,6.01927-1.56848,8.573-2.18337a2.94512,2.94512,0,0,0-.15514-2.22066A3.15622,3.15622,0,0,0,39.44635,57.07276Z"/><polygon class="cls-23" points="30.007 59.042 33.574 58.562 34.206 63.202 30.512 63.884 30.007 59.042"/><path class="cls-23" d="M25.01232,59.04236l1.86731.1693a13.055,13.055,0,0,1-.265,5.29865l-2.443.34528a5.375,5.375,0,0,1,.84067-5.81323Z"/><path class="cls-24" d="M15.75384,43.69957a4.99372,4.99372,0,0,0-1.67241-2.202,5.08917,5.08917,0,0,0-3.3907-.9477,1.0907,1.0907,0,0,0-.67884.446,1.15229,1.15229,0,0,0,.10257,1.3116,9.10394,9.10394,0,0,1,5.63938,1.39213Z"/><polygon class="cls-25" points="40.636 48.988 14.357 47.463 12.574 48.309 41.185 52.137 40.636 48.988"/><polygon class="cls-25" points="12.574 43.058 10.624 43.058 13.402 32.058 14.833 33.951 12.574 43.058"/><path class="cls-24" d="M15.75384,43.69957a57.28472,57.28472,0,0,1,19.544-1.73233A3.76055,3.76055,0,0,0,36.60764,46.867a31.637,31.637,0,0,1-10.81933.675,15.44821,15.44821,0,0,0-6.24367.75677,3.72483,3.72483,0,0,1-3.62356-1.8954A3.61482,3.61482,0,0,1,15.75384,43.69957Z"/><path class="cls-26" d="M28.50477,43.05931h4.70888c.54651-.027,1.00039.60933.99237,1.36694-.00786.74256-.45684,1.35287-.99237,1.32614l-4.43647.37218a1.92019,1.92019,0,0,1-.75887-1.53262A2.23811,2.23811,0,0,1,28.50477,43.05931Z"/><path class="cls-27" d="M15.75384,43.69957a8.90887,8.90887,0,0,0-1.44942-.75259,9.511,9.511,0,0,0-4.95351-.55747,7.78149,7.78149,0,0,0,.82694,5.53972,6.69986,6.69986,0,0,0,1.11622,1.37292,32.08966,32.08966,0,0,1,8.25057-1.00344,3.58785,3.58785,0,0,1-3.40664-1.537A3.684,3.684,0,0,1,15.75384,43.69957Z"/><path class="cls-24" d="M9.35091,42.38951l-1.6804-.10833a7.933,7.933,0,0,0-.38593,1.2107,8.11663,8.11663,0,0,0-.11579,3.02292l2.18212-.652a8.47022,8.47022,0,0,1,0-3.47326Z"/><path class="cls-24" d="M11.29407,49.30215,8.897,50.47285a7.5367,7.5367,0,0,1-.78046-1.115,7.70721,7.70721,0,0,1-.9477-2.8431l2.18212-.652a6.65354,6.65354,0,0,0,1.94316,3.43938Z"/><circle class="cls-10" cx="38.63802" cy="43.69957" r="3.76293"/><path class="cls-28" d="M18.93143,27.33781a9.00526,9.00526,0,0,0,3.86512,5.426A21.6873,21.6873,0,0,1,31.08429,26.706a3.81327,3.81327,0,0,0-.70613-2.49,3.94506,3.94506,0,0,0-2.89885-1.52375,8.66572,8.66572,0,0,0-8.54788,4.64559Z"/><path class="cls-28" d="M22.79655,32.76385a7.44306,7.44306,0,0,0,3.75364,4.60843,6.77612,6.77612,0,0,0,3.159.6318,21.622,21.622,0,0,0,5.57471-4.19961,21.27876,21.27876,0,0,0,1.93257-2.34138A9.7363,9.7363,0,0,0,31.08429,26.706a27.07569,27.07569,0,0,0-8.28774,6.05784Z"/><path class="cls-28" d="M37.21647,31.46309A7.61636,7.61636,0,0,1,41.45324,35.96a7.05856,7.05856,0,0,1,.1115,3.75364,9.5924,9.5924,0,0,1-5.649,3.04751,5.99093,5.99093,0,0,1-3.7908-1.04062,6.05229,6.05229,0,0,1-2.41571-3.71647,21.4496,21.4496,0,0,0,7.50728-6.541Z"/><path class="cls-29" d="M7.81917,2.47461H9.9004a5.63281,5.63281,0,0,1,5.35172,5.649c-.10352,4.1301-5.07075,5.41415-5.0916,5.39035l0-.00147a24.92649,24.92649,0,0,0-3.27049.52031,15.15263,15.15263,0,0,1-.37438-8.11125A14.47215,14.47215,0,0,1,7.81917,2.47461Z"/><path class="cls-30" d="M6.80287,4.88774H9.45442a3.47121,3.47121,0,0,1,2.41571,1.11752c1.30007,1.55263.837,4.7696-1.70958,7.50727l-3.27049.52031a14.92391,14.92391,0,0,1-.08719-9.1451Z"/><path class="cls-2" d="M9.9004,2.47461A26.45691,26.45691,0,0,1,27.92529,1.434a13.60311,13.60311,0,0,1-3.34483,1.2636,13.6799,13.6799,0,0,1-4.98007.223A11.51635,11.51635,0,0,0,13.51107,4.032,5.67248,5.67248,0,0,0,9.9004,2.47461Z"/><path class="cls-31" d="M31.34444,3.2179A11.34519,11.34519,0,0,0,27.92529,1.434a13.62137,13.62137,0,0,1-3.92388,1.38444,13.6248,13.6248,0,0,1-4.401.10214A11.54172,11.54172,0,0,0,13.51107,4.032,5.83434,5.83434,0,0,1,15.215,8.49529a5.95844,5.95844,0,0,1-5.0544,5.01724l-3.27049.52031c.16724,1.05454.44834,1.03075.52959,1.37509.03823.162.26631.29231.36236.446a1.5262,1.5262,0,0,0,1.18927.55747l1.71945-.14866a19.63536,19.63536,0,0,0,3.48361-.6318,19.6346,19.6346,0,0,0,3.27049-1.22644A4.35636,4.35636,0,0,0,19.30307,11.357l.37165-3.71647a.87713.87713,0,0,1,.297-.89731.90914.90914,0,0,1,.78074-.1433l1.96972-.07433q.65082-.28267,1.33794-.6318A23.6281,23.6281,0,0,0,27.10766,4.032a8.85193,8.85193,0,0,1,.92912-.36812A9.13809,9.13809,0,0,1,31.34444,3.2179Z"/><path class="cls-32" d="M28.03678,3.66388l-.11149,1.65383A1.46558,1.46558,0,0,1,26.513,6.87863a6.73324,6.73324,0,0,0-3.53994,1.7839,6.6259,6.6259,0,0,0-1.58879,2.45288,3.70725,3.70725,0,0,1-2.953,2.355,15.02755,15.02755,0,0,0,1.2248-5.17019q.01716-.33522.01858-.65968a.87713.87713,0,0,1,.297-.89731.90914.90914,0,0,1,.78074-.1433l1.96972-.07433q.82416-.36237,1.68567-.79113A37.95478,37.95478,0,0,0,28.03678,3.66388Z"/></svg>